<svg width="114" height="28" viewBox="0 0 114 28" fill="none" xmlns="http://www.w3.org/2000/svg">
<path d="M7.76335 2.82567C8.15373 1.83585 9.55456 1.83587 9.94494 2.82568L11.1547 5.89302C11.2738 6.19522 11.5131 6.43443 11.8153 6.5536L14.8826 7.76335C15.8725 8.15373 15.8725 9.55456 14.8826 9.94494L11.8153 11.1547C11.5131 11.2738 11.2738 11.5131 11.1547 11.8153L9.94494 14.8826C9.55456 15.8725 8.15373 15.8725 7.76335 14.8826L6.5536 11.8153C6.43443 11.5131 6.19522 11.2738 5.89302 11.1547L2.82567 9.94494C1.83585 9.55456 1.83587 8.15373 2.82568 7.76335L5.89302 6.5536C6.19522 6.43443 6.43443 6.19522 6.5536 5.89302L7.76335 2.82567Z" fill="white"/>
<path d="M17.6297 13.9496C17.8443 13.4057 18.6141 13.4057 18.8286 13.9496L19.7668 16.3284C19.8323 16.4946 19.9637 16.626 20.1299 16.6916L22.5087 17.6297C23.0526 17.8443 23.0526 18.6141 22.5087 18.8286L20.1299 19.7668C19.9637 19.8323 19.8323 19.9637 19.7668 20.1299L18.8286 22.5087C18.6141 23.0526 17.8443 23.0526 17.6297 22.5087L16.6916 20.1299C16.626 19.9637 16.4946 19.8323 16.3284 19.7668L13.9496 18.8286C13.4057 18.6141 13.4057 17.8443 13.9496 17.6297L16.3284 16.6916C16.4946 16.626 16.626 16.4946 16.6916 16.3284L17.6297 13.9496Z" fill="white"/>
<path d="M39.1982 23H35.793L35.8145 20.4863H39.1982C40.0433 20.4863 40.7559 20.2965 41.3359 19.917C41.916 19.5303 42.3529 18.9681 42.6465 18.2305C42.9473 17.4928 43.0977 16.6012 43.0977 15.5557V14.793C43.0977 13.9909 43.0117 13.2855 42.8398 12.6768C42.6751 12.068 42.4281 11.556 42.0986 11.1406C41.7692 10.7253 41.3646 10.4137 40.8848 10.2061C40.4049 9.99121 39.8535 9.88379 39.2305 9.88379H35.7285V7.35938H39.2305C40.276 7.35938 41.2321 7.53841 42.0986 7.89648C42.9723 8.2474 43.7279 8.75228 44.3652 9.41113C45.0026 10.07 45.4932 10.8577 45.8369 11.7744C46.1878 12.6839 46.3633 13.6973 46.3633 14.8145V15.5557C46.3633 16.6657 46.1878 17.679 45.8369 18.5957C45.4932 19.5124 45.0026 20.3001 44.3652 20.959C43.735 21.6107 42.9795 22.1156 42.0986 22.4736C41.2249 22.8245 40.2581 23 39.1982 23ZM37.6191 7.35938V23H34.3965V7.35938H37.6191ZM51.96 21.6895L55.043 11.377H58.3623L53.6895 24.751C53.5892 25.0446 53.4531 25.3597 53.2812 25.6963C53.1165 26.0329 52.891 26.3516 52.6045 26.6523C52.3252 26.9603 51.9707 27.2109 51.541 27.4043C51.1185 27.5977 50.5993 27.6943 49.9834 27.6943C49.6898 27.6943 49.4499 27.6764 49.2637 27.6406C49.0775 27.6048 48.8555 27.5547 48.5977 27.4902V25.2236C48.6764 25.2236 48.7588 25.2236 48.8447 25.2236C48.9307 25.2308 49.013 25.2344 49.0918 25.2344C49.5 25.2344 49.833 25.1878 50.0908 25.0947C50.3486 25.0016 50.5563 24.8584 50.7139 24.665C50.8714 24.4788 50.9967 24.2354 51.0898 23.9346L51.96 21.6895ZM50.6709 11.377L53.1953 19.7988L53.6357 23.0752L51.5303 23.3008L47.3516 11.377H50.6709ZM62.627 13.8584V23H59.5332V11.377H62.4336L62.627 13.8584ZM62.1758 16.7803H61.3379C61.3379 15.9209 61.4489 15.1475 61.6709 14.46C61.8929 13.7653 62.2044 13.1745 62.6055 12.6875C63.0065 12.1934 63.4827 11.8174 64.0342 11.5596C64.5928 11.2946 65.2158 11.1621 65.9033 11.1621C66.4476 11.1621 66.9453 11.2409 67.3965 11.3984C67.8477 11.556 68.2344 11.8066 68.5566 12.1504C68.8861 12.4941 69.1367 12.9489 69.3086 13.5146C69.4876 14.0804 69.5771 14.7715 69.5771 15.5879V23H66.4619V15.5771C66.4619 15.0615 66.3903 14.6605 66.2471 14.374C66.1038 14.0876 65.8926 13.887 65.6133 13.7725C65.3411 13.6507 65.0046 13.5898 64.6035 13.5898C64.1882 13.5898 63.8265 13.6722 63.5186 13.8369C63.2178 14.0016 62.9671 14.2308 62.7666 14.5244C62.5732 14.8109 62.4264 15.1475 62.3262 15.5342C62.2259 15.9209 62.1758 16.3363 62.1758 16.7803ZM78.2031 20.3789V15.2012C78.2031 14.8288 78.1423 14.5101 78.0205 14.2451C77.8988 13.973 77.709 13.7617 77.4512 13.6113C77.2005 13.4609 76.8747 13.3857 76.4736 13.3857C76.1299 13.3857 75.8327 13.4466 75.582 13.5684C75.3314 13.6829 75.138 13.8512 75.002 14.0732C74.8659 14.2881 74.7979 14.5423 74.7979 14.8359H71.7041C71.7041 14.3418 71.8187 13.8727 72.0479 13.4287C72.277 12.9847 72.61 12.5944 73.0469 12.2578C73.4837 11.9141 74.0029 11.6455 74.6045 11.4521C75.2132 11.2588 75.8936 11.1621 76.6455 11.1621C77.5479 11.1621 78.3499 11.3125 79.0518 11.6133C79.7536 11.9141 80.305 12.3652 80.7061 12.9668C81.1143 13.5684 81.3184 14.3203 81.3184 15.2227V20.1963C81.3184 20.8337 81.3577 21.3564 81.4365 21.7646C81.5153 22.1657 81.6299 22.5166 81.7803 22.8174V23H78.6543C78.5039 22.6849 78.3893 22.291 78.3105 21.8184C78.2389 21.3385 78.2031 20.8587 78.2031 20.3789ZM78.6113 15.9209L78.6328 17.6719H76.9033C76.4951 17.6719 76.1406 17.7184 75.8398 17.8115C75.5391 17.9046 75.292 18.0371 75.0986 18.209C74.9053 18.3737 74.762 18.5671 74.6689 18.7891C74.583 19.0111 74.54 19.2546 74.54 19.5195C74.54 19.7845 74.6009 20.0244 74.7227 20.2393C74.8444 20.4469 75.0199 20.6117 75.249 20.7334C75.4782 20.848 75.7467 20.9053 76.0547 20.9053C76.5202 20.9053 76.9248 20.8122 77.2686 20.626C77.6123 20.4398 77.8773 20.2106 78.0635 19.9385C78.2568 19.6663 78.3571 19.4085 78.3643 19.165L79.1807 20.4756C79.0661 20.7692 78.9085 21.0736 78.708 21.3887C78.5146 21.7038 78.2676 22.001 77.9668 22.2803C77.666 22.5524 77.3044 22.778 76.8818 22.957C76.4593 23.1289 75.958 23.2148 75.3779 23.2148C74.6403 23.2148 73.9707 23.068 73.3691 22.7744C72.7747 22.4736 72.3021 22.0618 71.9512 21.5391C71.6074 21.0091 71.4355 20.4076 71.4355 19.7344C71.4355 19.1257 71.5501 18.585 71.7793 18.1123C72.0085 17.6396 72.3451 17.2422 72.7891 16.9199C73.2402 16.5905 73.8024 16.3434 74.4756 16.1787C75.1488 16.0068 75.9294 15.9209 76.8174 15.9209H78.6113ZM86.7969 13.7832V23H83.6924V11.377H86.6035L86.7969 13.7832ZM86.3672 16.7803H85.5078C85.5078 15.971 85.6045 15.2262 85.7979 14.5459C85.9984 13.8584 86.2884 13.264 86.668 12.7627C87.0547 12.2542 87.5309 11.8604 88.0967 11.5811C88.6624 11.3018 89.3177 11.1621 90.0625 11.1621C90.5781 11.1621 91.0508 11.2409 91.4805 11.3984C91.9102 11.5488 92.279 11.7887 92.5869 12.1182C92.902 12.4404 93.1455 12.863 93.3174 13.3857C93.4893 13.9014 93.5752 14.5208 93.5752 15.2441V23H90.4814V15.5879C90.4814 15.0579 90.4098 14.6497 90.2666 14.3633C90.1234 14.0768 89.9193 13.8763 89.6543 13.7617C89.3965 13.6471 89.085 13.5898 88.7197 13.5898C88.3187 13.5898 87.9678 13.6722 87.667 13.8369C87.3734 14.0016 87.1299 14.2308 86.9365 14.5244C86.7432 14.8109 86.5999 15.1475 86.5068 15.5342C86.4137 15.9209 86.3672 16.3363 86.3672 16.7803ZM93.2852 16.4258L92.1787 16.5654C92.1787 15.8063 92.2718 15.1009 92.458 14.4492C92.6514 13.7975 92.9342 13.2246 93.3066 12.7305C93.6862 12.2363 94.1553 11.8532 94.7139 11.5811C95.2725 11.3018 95.917 11.1621 96.6475 11.1621C97.2061 11.1621 97.7145 11.2445 98.1729 11.4092C98.6312 11.5667 99.0215 11.821 99.3438 12.1719C99.6732 12.5156 99.9238 12.9668 100.096 13.5254C100.275 14.084 100.364 14.7679 100.364 15.5771V23H97.2598V15.5771C97.2598 15.04 97.1882 14.6318 97.0449 14.3525C96.9089 14.0661 96.7083 13.8691 96.4434 13.7617C96.1855 13.6471 95.8776 13.5898 95.5195 13.5898C95.1471 13.5898 94.8213 13.665 94.542 13.8154C94.2627 13.9587 94.0299 14.1592 93.8438 14.417C93.6576 14.6748 93.5179 14.9756 93.4248 15.3193C93.3317 15.6559 93.2852 16.0247 93.2852 16.4258ZM102.266 17.3066V17.0811C102.266 16.2288 102.387 15.4447 102.631 14.7285C102.874 14.0052 103.229 13.3786 103.694 12.8486C104.16 12.3187 104.733 11.9069 105.413 11.6133C106.093 11.3125 106.874 11.1621 107.755 11.1621C108.636 11.1621 109.42 11.3125 110.107 11.6133C110.795 11.9069 111.371 12.3187 111.837 12.8486C112.31 13.3786 112.668 14.0052 112.911 14.7285C113.155 15.4447 113.276 16.2288 113.276 17.0811V17.3066C113.276 18.1517 113.155 18.9359 112.911 19.6592C112.668 20.3753 112.31 21.002 111.837 21.5391C111.371 22.069 110.799 22.4808 110.118 22.7744C109.438 23.068 108.657 23.2148 107.776 23.2148C106.896 23.2148 106.111 23.068 105.424 22.7744C104.743 22.4808 104.167 22.069 103.694 21.5391C103.229 21.002 102.874 20.3753 102.631 19.6592C102.387 18.9359 102.266 18.1517 102.266 17.3066ZM105.359 17.0811V17.3066C105.359 17.7936 105.402 18.2484 105.488 18.6709C105.574 19.0934 105.71 19.4658 105.896 19.7881C106.09 20.1032 106.34 20.3503 106.648 20.5293C106.956 20.7083 107.332 20.7979 107.776 20.7979C108.206 20.7979 108.575 20.7083 108.883 20.5293C109.191 20.3503 109.438 20.1032 109.624 19.7881C109.81 19.4658 109.946 19.0934 110.032 18.6709C110.125 18.2484 110.172 17.7936 110.172 17.3066V17.0811C110.172 16.6084 110.125 16.1644 110.032 15.749C109.946 15.3265 109.807 14.9541 109.613 14.6318C109.427 14.3024 109.18 14.0446 108.872 13.8584C108.564 13.6722 108.192 13.5791 107.755 13.5791C107.318 13.5791 106.946 13.6722 106.638 13.8584C106.337 14.0446 106.09 14.3024 105.896 14.6318C105.71 14.9541 105.574 15.3265 105.488 15.749C105.402 16.1644 105.359 16.6084 105.359 17.0811Z" fill="white"/>
</svg>
