<svg width="25" height="25" viewBox="0 0 25 25" fill="none" xmlns="http://www.w3.org/2000/svg">
<path d="M7.76335 2.82567C8.15373 1.83585 9.55456 1.83587 9.94494 2.82568L11.1547 5.89302C11.2738 6.19522 11.5131 6.43443 11.8153 6.5536L14.8826 7.76335C15.8725 8.15373 15.8725 9.55456 14.8826 9.94494L11.8153 11.1547C11.5131 11.2738 11.2738 11.5131 11.1547 11.8153L9.94494 14.8826C9.55456 15.8725 8.15373 15.8725 7.76335 14.8826L6.5536 11.8153C6.43443 11.5131 6.19522 11.2738 5.89302 11.1547L2.82567 9.94494C1.83585 9.55456 1.83587 8.15373 2.82568 7.76335L5.89302 6.5536C6.19522 6.43443 6.43443 6.19522 6.5536 5.89302L7.76335 2.82567Z" fill="white"/>
<path d="M17.6297 13.9496C17.8443 13.4057 18.6141 13.4057 18.8286 13.9496L19.7668 16.3284C19.8323 16.4946 19.9637 16.626 20.1299 16.6916L22.5087 17.6297C23.0526 17.8443 23.0526 18.6141 22.5087 18.8286L20.1299 19.7668C19.9637 19.8323 19.8323 19.9637 19.7668 20.1299L18.8286 22.5087C18.6141 23.0526 17.8443 23.0526 17.6297 22.5087L16.6916 20.1299C16.626 19.9637 16.4946 19.8323 16.3284 19.7668L13.9496 18.8286C13.4057 18.6141 13.4057 17.8443 13.9496 17.6297L16.3284 16.6916C16.4946 16.626 16.626 16.4946 16.6916 16.3284L17.6297 13.9496Z" fill="white"/>
</svg>
